<?xml version="1.0" encoding="utf-8"?>
<svg xmlns="http://www.w3.org/2000/svg" data-name="Layer 1" viewBox="0 0 95 118.75" x="0px" y="0px">
  <title>geometric icons</title>
  <path d="M 47.692 12.084 C 21.458 12.084 0.192 33.351 0.192 59.584 L 0.192 107.084 C 26.426 107.084 47.692 85.818 47.692 59.584 C 47.692 85.818 68.958 107.084 95.192 107.084 L 95.192 59.584 C 95.159 33.364 73.912 12.117 47.692 12.084 Z M 47.692 59.584 L 47.692 36.774 C 60.285 36.785 70.491 46.991 70.502 59.584 L 47.692 59.584 Z M 76.442 59.584 C 76.42 43.715 63.561 30.856 47.692 30.834 L 47.692 27.394 C 65.461 27.416 79.86 41.815 79.882 59.584 L 76.442 59.584 Z M 85.822 59.584 C 85.794 38.537 68.739 21.482 47.692 21.454 L 47.692 18.024 C 70.636 18.046 89.23 36.64 89.252 59.584 L 85.822 59.584 Z"/>
</svg>